<svg xmlns="http://www.w3.org/2000/svg" xmlns:xlink="http://www.w3.org/1999/xlink" width="1920" zoomAndPan="magnify" viewBox="0 0 1440 809.999993" height="1080" preserveAspectRatio="xMidYMid meet" version="1.0"><defs><g/><clipPath id="c0c75b5b4f"><path d="M 0.601562 0.800781 L 1408.679688 0.800781 L 1408.679688 381.199219 L 0.601562 381.199219 Z M 0.601562 0.800781 " clip-rule="nonzero"/></clipPath><clipPath id="68cf2c0fdb"><rect x="0" width="1409" y="0" height="382"/></clipPath><clipPath id="ee94e62307"><rect x="0" width="1409" y="0" height="382"/></clipPath></defs><g transform="matrix(1, 0, 0, 1, 15, 214)"><g clip-path="url(#ee94e62307)"><g clip-path="url(#c0c75b5b4f)"><g transform="matrix(1, 0, 0, 1, -0.000000000000001776, 0.000000000000028422)"><g clip-path="url(#68cf2c0fdb)"><g fill="#000000" fill-opacity="1"><g transform="translate(1.026406, 285.653144)"><g><path d="M 249 -21.21875 C 248.789062 -15.09375 246.46875 -9.914062 242.03125 -5.6875 C 237.59375 -1.46875 232.3125 0.53125 226.1875 0.3125 C 220.0625 0.101562 214.882812 -2.21875 210.65625 -6.65625 C 206.4375 -11.09375 204.4375 -16.375 204.65625 -22.5 C 205.070312 -36.21875 204.859375 -76.765625 204.015625 -144.140625 C 188.390625 -124.503906 172.972656 -103.488281 157.765625 -81.09375 C 154.171875 -76.03125 149.414062 -72.914062 143.5 -71.75 C 137.59375 -70.59375 132.101562 -71.703125 127.03125 -75.078125 C 126.394531 -75.503906 125.867188 -75.925781 125.453125 -76.34375 C 123.128906 -77.820312 121.125 -79.617188 119.4375 -81.734375 L 70.640625 -143.1875 C 70.859375 -142.769531 70.910156 -122.550781 70.796875 -82.53125 C 70.691406 -42.507812 70.640625 -22.390625 70.640625 -22.171875 C 70.640625 -16.046875 68.472656 -10.816406 64.140625 -6.484375 C 59.816406 -2.160156 54.59375 0 48.46875 0 C 42.34375 0 37.113281 -2.160156 32.78125 -6.484375 C 28.457031 -10.816406 26.296875 -16.046875 26.296875 -22.171875 C 26.296875 -31.046875 26.347656 -45.9375 26.453125 -66.84375 C 26.554688 -87.75 26.609375 -103.90625 26.609375 -115.3125 C 26.609375 -126.71875 26.398438 -140.867188 25.984375 -157.765625 C 25.554688 -172.753906 24.816406 -188.273438 23.765625 -204.328125 C 23.335938 -210.453125 25.128906 -215.835938 29.140625 -220.484375 C 33.160156 -225.128906 38.226562 -227.664062 44.34375 -228.09375 C 47.519531 -228.300781 50.476562 -227.878906 53.21875 -226.828125 C 59.132812 -225.984375 63.890625 -223.128906 67.484375 -218.265625 L 137.8125 -129.890625 C 160.613281 -161.566406 183.84375 -190.078125 207.5 -215.421875 C 211.9375 -223.023438 218.484375 -226.722656 227.140625 -226.515625 C 233.265625 -226.296875 238.4375 -223.96875 242.65625 -219.53125 C 246.882812 -215.101562 248.894531 -209.828125 248.6875 -203.703125 C 248.050781 -183.640625 248.050781 -152.960938 248.6875 -111.671875 C 249.320312 -70.378906 249.425781 -40.226562 249 -21.21875 Z M 249 -21.21875 "/></g></g></g><g fill="#000000" fill-opacity="1"><g transform="translate(274.106699, 285.653144)"><g><path d="M 3.171875 -12.984375 C 0.628906 -18.691406 0.519531 -24.289062 2.84375 -29.78125 L 73.8125 -212.578125 C 75.5 -216.585938 78.140625 -219.859375 81.734375 -222.390625 C 85.328125 -224.921875 89.335938 -226.296875 93.765625 -226.515625 C 98.410156 -227.359375 103.003906 -226.5625 107.546875 -224.125 C 112.085938 -221.695312 115.519531 -218.269531 117.84375 -213.84375 L 141.296875 -155.546875 L 168.859375 -87.4375 L 190.71875 -30.40625 C 193.039062 -24.707031 192.984375 -19.054688 190.546875 -13.453125 C 188.117188 -7.859375 184 -3.898438 178.1875 -1.578125 C 172.382812 0.742188 166.628906 0.691406 160.921875 -1.734375 C 155.222656 -4.171875 151.210938 -8.132812 148.890625 -13.625 L 130.515625 -55.4375 C 106.859375 -56.070312 83.414062 -55.863281 60.1875 -54.8125 L 44.671875 -12.984375 C 42.128906 -7.492188 38.007812 -3.535156 32.3125 -1.109375 C 26.613281 1.316406 20.910156 1.316406 15.203125 -1.109375 C 9.503906 -3.535156 5.492188 -7.492188 3.171875 -12.984375 Z M 78.5625 -100.109375 C 86.59375 -100.109375 98.207031 -100.109375 113.40625 -100.109375 L 96.625 -145.71875 Z M 78.5625 -100.109375 "/></g></g></g><g fill="#000000" fill-opacity="1"><g transform="translate(467.670525, 285.653144)"><g><path d="M 161.890625 -16.796875 C 157.023438 -38.546875 152.800781 -54.910156 149.21875 -65.890625 C 145.414062 -75.398438 141.082031 -82.367188 136.21875 -86.796875 C 130.9375 -91.660156 123.332031 -94.722656 113.40625 -95.984375 C 111.082031 -95.773438 107.914062 -95.617188 103.90625 -95.515625 C 99.894531 -95.410156 97.785156 -95.359375 97.578125 -95.359375 C 89.335938 -95.140625 83 -94.925781 78.5625 -94.71875 L 69.0625 -94.71875 C 69.269531 -66 69.375 -41.710938 69.375 -21.859375 C 69.375 -15.734375 67.207031 -10.503906 62.875 -6.171875 C 58.550781 -1.847656 53.328125 0.3125 47.203125 0.3125 C 41.078125 0.3125 35.847656 -1.847656 31.515625 -6.171875 C 27.191406 -10.503906 25.03125 -15.734375 25.03125 -21.859375 C 25.03125 -45.722656 24.816406 -77.398438 24.390625 -116.890625 C 23.972656 -156.390625 23.765625 -185.957031 23.765625 -205.59375 C 23.765625 -211.71875 25.925781 -216.945312 30.25 -221.28125 C 34.582031 -225.613281 39.8125 -227.78125 45.9375 -227.78125 L 47.515625 -227.78125 C 77.722656 -231.582031 105.8125 -231.472656 131.78125 -227.453125 C 151.851562 -224.503906 167.695312 -218.910156 179.3125 -210.671875 C 196.832031 -198.421875 205.066406 -181.945312 204.015625 -161.25 C 202.742188 -140.976562 192.1875 -124.925781 172.34375 -113.09375 C 179.9375 -104.226562 186.054688 -93.613281 190.703125 -81.25 C 195.359375 -68.894531 200.113281 -51 204.96875 -27.5625 C 206.445312 -21.644531 205.601562 -16.046875 202.4375 -10.765625 C 199.269531 -5.484375 194.726562 -2.101562 188.8125 -0.625 C 182.894531 0.84375 177.296875 -0.00390625 172.015625 -3.171875 C 166.734375 -6.335938 163.359375 -10.878906 161.890625 -16.796875 Z M 69.375 -139.078125 C 86.90625 -141.179688 101.898438 -141.601562 114.359375 -140.34375 C 116.046875 -140.550781 117.523438 -140.757812 118.796875 -140.96875 C 131.253906 -143.082031 141.285156 -146.253906 148.890625 -150.484375 C 155.859375 -154.492188 159.453125 -158.925781 159.671875 -163.78125 C 160.085938 -168.007812 158.289062 -171.492188 154.28125 -174.234375 C 147.945312 -178.671875 138.125 -181.835938 124.8125 -183.734375 C 108.757812 -186.273438 89.859375 -186.804688 68.109375 -185.328125 C 68.109375 -172.441406 68.210938 -157.023438 68.421875 -139.078125 Z M 69.375 -139.078125 "/></g></g></g><g fill="#000000" fill-opacity="1"><g transform="translate(684.67748, 285.653144)"><g><path d="M 97.890625 2.84375 C 81.628906 3.269531 66.953125 0.738281 53.859375 -4.75 C 40.765625 -10.238281 30.414062 -18.265625 22.8125 -28.828125 C 15.207031 -39.390625 11.40625 -51.640625 11.40625 -65.578125 C 11.40625 -74.023438 13.832031 -80.625 18.6875 -85.375 C 23.550781 -90.125 29.046875 -92.5 35.171875 -92.5 C 41.285156 -92.5 46.242188 -90.332031 50.046875 -86 C 53.847656 -81.675781 55.75 -76.875 55.75 -71.59375 C 55.75 -66.3125 56.066406 -61.925781 56.703125 -58.4375 C 57.335938 -54.957031 58.921875 -51.738281 61.453125 -48.78125 C 66.316406 -42.875 78.675781 -39.921875 98.53125 -39.921875 C 109.300781 -39.921875 118.484375 -42.132812 126.078125 -46.5625 C 133.679688 -51 137.484375 -57.335938 137.484375 -65.578125 C 137.484375 -71.066406 133.050781 -76.347656 124.1875 -81.421875 C 118.0625 -84.796875 104.4375 -90.070312 83.3125 -97.25 C 60.289062 -104.851562 42.972656 -113.671875 31.359375 -123.703125 C 19.742188 -133.734375 13.9375 -147.410156 13.9375 -164.734375 C 13.9375 -178.035156 17.738281 -189.648438 25.34375 -199.578125 C 32.945312 -209.503906 42.925781 -217.109375 55.28125 -222.390625 C 67.632812 -227.671875 80.78125 -230.3125 94.71875 -230.3125 C 109.082031 -230.726562 122.914062 -228.398438 136.21875 -223.328125 C 149.53125 -218.265625 160.25 -211.035156 168.375 -201.640625 C 176.507812 -192.242188 180.578125 -181.628906 180.578125 -169.796875 C 180.578125 -163.460938 178.253906 -158.023438 173.609375 -153.484375 C 168.960938 -148.941406 163.578125 -146.671875 157.453125 -146.671875 C 153.222656 -146.671875 149.101562 -147.9375 145.09375 -150.46875 C 141.082031 -153.007812 138.546875 -156.179688 137.484375 -159.984375 C 136.222656 -165.046875 134.375 -168.953125 131.9375 -171.703125 C 129.507812 -174.453125 126.289062 -176.988281 122.28125 -179.3125 C 117 -182.257812 112.242188 -184.367188 108.015625 -185.640625 C 103.796875 -186.910156 97.78125 -187.546875 89.96875 -187.546875 C 80.675781 -187.546875 73.019531 -185.800781 67 -182.3125 C 60.976562 -178.832031 57.96875 -174.347656 57.96875 -168.859375 C 57.96875 -161.878906 61.398438 -156.171875 68.265625 -151.734375 C 75.128906 -147.304688 84.789062 -143.085938 97.25 -139.078125 C 121.332031 -131.046875 137.382812 -124.8125 145.40625 -120.375 C 158.71875 -112.988281 168.117188 -105.175781 173.609375 -96.9375 C 179.097656 -88.695312 181.84375 -78.347656 181.84375 -65.890625 C 181.84375 -52.585938 177.828125 -40.707031 169.796875 -30.25 C 161.773438 -19.800781 151.269531 -11.671875 138.28125 -5.859375 C 125.289062 -0.0546875 111.828125 2.84375 97.890625 2.84375 Z M 97.890625 2.84375 "/></g></g></g><g fill="#3b82f6" fill-opacity="1"><g transform="translate(876.976034, 285.653144)"><g><path d="M 78.875 0.3125 C 71.28125 0.3125 63.046875 -1.164062 54.171875 -4.125 C 43.191406 -8.34375 34.003906 -14.570312 26.609375 -22.8125 C 19.429688 -31.257812 15 -40.445312 13.3125 -50.375 C 12.039062 -56.914062 11.40625 -63.25 11.40625 -69.375 C 11.40625 -83.53125 14.148438 -96.835938 19.640625 -109.296875 C 27.242188 -126.828125 37.910156 -140.976562 51.640625 -151.75 C 65.367188 -162.519531 81 -167.90625 98.53125 -167.90625 C 104.863281 -167.90625 111.722656 -167.0625 119.109375 -165.375 C 123.972656 -164.101562 128.726562 -161.882812 133.375 -158.71875 L 134.953125 -158.71875 L 138.125 -159.03125 C 143.40625 -159.03125 148.101562 -157.128906 152.21875 -153.328125 C 156.332031 -149.523438 158.707031 -144.878906 159.34375 -139.390625 L 161.5625 -117.53125 C 161.988281 -108.238281 162.519531 -92.398438 163.15625 -70.015625 L 163.78125 -52.90625 C 164.207031 -42.34375 164.472656 -35.425781 164.578125 -32.15625 C 164.679688 -28.882812 164.519531 -25.769531 164.09375 -22.8125 C 163.25 -16.6875 160.976562 -11.457031 157.28125 -7.125 C 153.59375 -2.800781 148.789062 -0.53125 142.875 -0.3125 C 138.019531 -0.101562 133.640625 -1.316406 129.734375 -3.953125 C 125.828125 -6.597656 123.023438 -11.40625 121.328125 -18.375 C 116.472656 -12.457031 110.5625 -8.128906 103.59375 -5.390625 C 95.351562 -2.003906 87.113281 -0.101562 78.875 0.3125 Z M 79.203125 -44.34375 C 85.535156 -44.34375 92.082031 -46.351562 98.84375 -50.375 C 100.53125 -51.425781 102.429688 -53.007812 104.546875 -55.125 L 109.296875 -59.5625 L 114.6875 -67.15625 C 115.945312 -68.632812 117.421875 -69.691406 119.109375 -70.328125 C 119.109375 -88.066406 118.582031 -103.0625 117.53125 -115.3125 L 114.359375 -117.53125 L 109.921875 -121.015625 L 107.078125 -122.921875 C 103.703125 -123.765625 101.0625 -124.1875 99.15625 -124.1875 C 91.550781 -124.1875 84.210938 -121.226562 77.140625 -115.3125 C 70.066406 -109.394531 64.414062 -101.160156 60.1875 -90.609375 C 56.8125 -82.367188 55.125 -74.972656 55.125 -68.421875 C 55.125 -62.722656 56.441406 -57.972656 59.078125 -54.171875 C 61.722656 -50.367188 65.472656 -47.625 70.328125 -45.9375 C 73.492188 -44.875 76.453125 -44.34375 79.203125 -44.34375 Z M 79.203125 -44.34375 "/></g></g></g><g fill="#3b82f6" fill-opacity="1"><g transform="translate(1058.818332, 285.653144)"><g><path d="M 123.234375 -6.328125 C 105.703125 -24.285156 90.914062 -42.132812 78.875 -59.875 L 66.203125 -47.84375 C 65.785156 -47.625 65.363281 -47.304688 64.9375 -46.890625 L 64.9375 -21.21875 C 64.726562 -15.09375 62.457031 -9.914062 58.125 -5.6875 C 53.800781 -1.46875 48.578125 0.582031 42.453125 0.46875 C 36.328125 0.363281 31.148438 -1.847656 26.921875 -6.171875 C 22.703125 -10.503906 20.59375 -15.734375 20.59375 -21.859375 C 21.226562 -59.867188 20.171875 -120.691406 17.421875 -204.328125 C 17.210938 -210.453125 19.164062 -215.734375 23.28125 -220.171875 C 27.40625 -224.609375 32.53125 -226.984375 38.65625 -227.296875 C 44.78125 -227.617188 50.054688 -225.71875 54.484375 -221.59375 C 58.921875 -217.476562 61.351562 -212.359375 61.78125 -206.234375 C 63.039062 -169.273438 63.988281 -136.328125 64.625 -107.390625 C 81.101562 -123.441406 98.421875 -141.179688 116.578125 -160.609375 C 120.804688 -165.046875 125.925781 -167.367188 131.9375 -167.578125 C 137.957031 -167.796875 143.238281 -165.789062 147.78125 -161.5625 C 152.320312 -157.34375 154.695312 -152.222656 154.90625 -146.203125 C 155.125 -140.179688 153.117188 -134.847656 148.890625 -130.203125 L 111.203125 -91.546875 C 123.023438 -72.753906 137.59375 -54.488281 154.90625 -36.75 C 159.132812 -32.519531 161.195312 -27.34375 161.09375 -21.21875 C 160.988281 -15.09375 158.769531 -9.914062 154.4375 -5.6875 C 150.101562 -1.46875 144.875 0.582031 138.75 0.46875 C 132.625 0.363281 127.453125 -1.898438 123.234375 -6.328125 Z M 123.234375 -6.328125 "/></g></g></g><g fill="#3b82f6" fill-opacity="1"><g transform="translate(1224.820751, 285.653144)"><g><path d="M 15.84375 -21.546875 C 15.207031 -66.316406 15.523438 -108.238281 16.796875 -147.3125 C 17.003906 -153.4375 19.378906 -158.554688 23.921875 -162.671875 C 28.460938 -166.796875 33.796875 -168.75 39.921875 -168.53125 C 46.046875 -168.320312 51.164062 -165.945312 55.28125 -161.40625 C 59.394531 -156.863281 61.347656 -151.53125 61.140625 -145.40625 C 59.867188 -105.914062 59.550781 -64.835938 60.1875 -22.171875 C 60.1875 -16.046875 58.070312 -10.816406 53.84375 -6.484375 C 49.625 -2.160156 44.453125 0.0507812 38.328125 0.15625 C 32.203125 0.257812 26.972656 -1.796875 22.640625 -6.015625 C 18.316406 -10.242188 16.050781 -15.421875 15.84375 -21.546875 Z M 53.53125 -222.703125 C 57.96875 -218.484375 60.1875 -213.148438 60.1875 -206.703125 C 60.1875 -200.265625 57.96875 -194.828125 53.53125 -190.390625 C 49.101562 -185.953125 43.71875 -183.734375 37.375 -183.734375 C 31.039062 -183.734375 25.65625 -185.953125 21.21875 -190.390625 C 16.789062 -194.828125 14.578125 -200.265625 14.578125 -206.703125 C 14.578125 -213.148438 16.789062 -218.585938 21.21875 -223.015625 C 25.65625 -227.453125 31.039062 -229.671875 37.375 -229.671875 C 43.71875 -229.671875 49.101562 -227.347656 53.53125 -222.703125 Z M 53.53125 -222.703125 "/></g></g></g><g fill="#3b82f6" fill-opacity="1"><g transform="translate(1302.436422, 285.653144)"><g><path d="M 76.984375 0.640625 C 72.753906 0.640625 68.632812 -0.734375 64.625 -3.484375 C 62.300781 -4.328125 60.082031 -5.382812 57.96875 -6.65625 L 49.734375 -11.40625 C 41.285156 -16.257812 34.953125 -20.800781 30.734375 -25.03125 C 27.140625 -29.675781 24.921875 -34.269531 24.078125 -38.8125 C 23.234375 -43.351562 22.707031 -50.054688 22.5 -58.921875 L 22.5 -65.265625 C 22.28125 -71.390625 22.171875 -85.644531 22.171875 -108.03125 C 22.171875 -117.113281 22.28125 -123.976562 22.5 -128.625 L 16.46875 -128.625 C 11.1875 -128.625 6.59375 -130.46875 2.6875 -134.15625 C -1.21875 -137.851562 -3.171875 -142.554688 -3.171875 -148.265625 C -3.171875 -154.171875 -1.164062 -159.078125 2.84375 -162.984375 C 6.863281 -166.898438 11.515625 -168.859375 16.796875 -168.859375 L 22.5 -168.859375 L 22.8125 -182.46875 L 22.8125 -192.296875 C 23.019531 -199.054688 25.285156 -204.28125 29.609375 -207.96875 C 33.941406 -211.664062 38.960938 -213.515625 44.671875 -213.515625 C 50.578125 -213.515625 55.800781 -211.507812 60.34375 -207.5 C 64.882812 -203.488281 67.15625 -198 67.15625 -191.03125 L 66.53125 -169.484375 L 78.25 -169.484375 C 85.851562 -169.484375 91.554688 -167.476562 95.359375 -163.46875 C 99.160156 -159.457031 101.0625 -154.390625 101.0625 -148.265625 C 101.0625 -142.347656 99.050781 -137.328125 95.03125 -133.203125 C 91.019531 -129.085938 85.109375 -127.03125 77.296875 -127.03125 L 65.578125 -127.03125 C 65.578125 -118.375 65.472656 -111.929688 65.265625 -107.703125 C 65.046875 -103.273438 64.9375 -96.941406 64.9375 -88.703125 C 64.9375 -75.179688 65.359375 -63.457031 66.203125 -53.53125 C 67.054688 -52.6875 67.585938 -52.265625 67.796875 -52.265625 L 70.96875 -50.046875 L 73.5 -48.78125 L 76.34375 -47.203125 L 78.875 -45.9375 C 82.675781 -44.25 85.953125 -42.347656 88.703125 -40.234375 C 95.253906 -35.796875 98.53125 -29.882812 98.53125 -22.5 C 98.53125 -16.582031 96.414062 -11.242188 92.1875 -6.484375 C 87.96875 -1.734375 82.898438 0.640625 76.984375 0.640625 Z M 76.984375 0.640625 "/></g></g></g></g></g></g></g></g></svg>